# xmcd
#
# Track frame offsets:
#	182
#	15010
#	33535
#	45985
#	63232
#	85432
#	100285
#	117760
#	136807
#	153610
#	166132
#	178735
#	196060
#	213085
#	226285
#	239110
#	257110
#
# Disc length: 3655 seconds
#
# Revision: 1
# Processed by: cddbd v1.5.2PL0 Copyright (c) Steve Scherf et al.
# Submitted via: audiograbber 1.83.01
#
DISCID=d80e4511
DTITLE=STEPHEN R. CHENEY - HOLDING ONTO A DREAM
DYEAR=1900
DGENRE=Country
TTITLE0=HOLDING ONTO A DREAM
TTITLE1=ROCKY MOUNTAIN HIGH
TTITLE2=ALMOST ANYTIME
TTITLE3=MATHEW
TTITLE4=ALWAYS ON MY MIND
TTITLE5=MISTY RIVER
TTITLE6=COUNTRY GIRL IN PARIS
TTITLE7=I SWEAR
TTITLE8=JESUS WILL ALWAYS BE THERE
TTITLE9=WALTZ  ACROSS TEXAS
TTITLE10=CRAZY
TTITLE11=LEAVIN' ON A JET PLANE
TTITLE12=WE WON'T MAKE LOVE ANYMORE (Debra Sharmon)
TTITLE13=PRETTY WOMAN
TTITLE14=THE FLOWER THAN SHATTERED THE STONE
TTITLE15=NEON MOON
TTITLE16=FOR YOU
EXTD=
EXTT0=
EXTT1=
EXTT2=
EXTT3=
EXTT4=
EXTT5=
EXTT6=
EXTT7=
EXTT8=
EXTT9=
EXTT10=
EXTT11=
EXTT12=
EXTT13=
EXTT14=
EXTT15=
EXTT16=
PLAYORDER=
